<?xml version="1.0" encoding="UTF-8"?>
<svg version="1.1" xmlns="http://www.w3.org/2000/svg" width="700" height="700">
<path d="M0 0 C7.30404073 4.41344881 13.21480737 8.64366254 18.5534668 15.37719727 C18.98336914 15.90812988 19.41327148 16.4390625 19.85620117 16.98608398 C22.24952577 19.94436003 24.58892102 22.93405661 26.8815918 25.97094727 C28.52051451 28.11833807 30.133101 29.96776797 32.0378418 31.90844727 C39.92404501 40.05928817 41.64253394 49.94926738 43.9675293 60.71313477 C44.45775304 62.9420187 44.99627226 65.14161535 45.5847168 67.34594727 C48.9732596 80.77461687 49.20414258 93.58064297 43.6472168 106.36157227 C42.4530342 109.65410429 42.13026779 111.90504175 42.5534668 115.37719727 C43.76448354 117.22966219 43.76448354 117.22966219 45.5534668 118.75219727 C53.35730987 127.07629654 57.31817798 138.14439365 60.6159668 148.87719727 C62.45397565 154.84170399 64.19967611 158.91050678 68.74487305 163.33422852 C74.48094043 169.81363076 79.03688068 179.64553405 78.5534668 188.37719727 C78.33948242 189.6030957 78.12549805 190.82899414 77.9050293 192.09204102 C77.28236012 196.8335678 78.42556712 200.59197189 79.9284668 205.06469727 C80.39640583 206.52636398 80.86259913 207.98859092 81.3269043 209.45141602 C81.54483643 210.13526367 81.76276855 210.81911133 81.98730469 211.52368164 C85.60124394 223.35508605 83.65220846 233.99520468 78.33862305 244.86157227 C74.23085305 252.33890431 68.44394697 258.29890468 62.5534668 264.37719727 C61.82901367 265.13000977 61.10456055 265.88282227 60.3581543 266.65844727 C55.91139852 271.1982314 55.91139852 271.1982314 53.5534668 272.37719727 C52.92775733 273.95778089 52.37842344 275.56885022 51.8659668 277.18969727 C46.80776255 291.47820123 37.57601391 303.20718479 25.5534668 312.37719727 C23.45581055 313.13500977 23.45581055 313.13500977 21.4909668 313.50219727 C14.89144849 315.45432369 10.1757547 320.47087026 5.16137695 324.96362305 C2.79771994 327.04160272 0.33092112 328.9837717 -2.1340332 330.93969727 C-3.91339974 332.40858782 -5.68425997 333.88784245 -7.4465332 335.37719727 C-8.38239258 336.16739258 -9.31825195 336.95758789 -10.2824707 337.77172852 C-15.79581771 342.78745251 -18.54510801 346.26496415 -18.9699707 353.83422852 C-19.6205986 357.30602166 -20.98662053 358.86398648 -23.4465332 361.37719727 C-31.22617786 366.46305914 -39.54231749 369.12590814 -48.46582031 371.390625 C-58.37995061 373.99639014 -68.1026908 378.1183094 -76.8605957 383.45922852 C-80.22106716 385.41708495 -83.57528408 386.38852843 -87.33822632 387.31427002 C-94.59829645 389.10065952 -101.69592136 390.98819531 -108.64672852 393.7734375 C-125.77622307 400.62603442 -142.0263474 403.42061727 -160.40060806 404.66691208 C-164.00101142 404.91927403 -167.59784141 405.21562066 -171.1953125 405.50634766 C-177.61996936 406.01913454 -184.04665696 406.49440892 -190.47563457 406.94952488 C-195.95990387 407.33875161 -201.44131035 407.7594339 -206.92250061 408.18955994 C-211.8671302 408.57656626 -216.81278927 408.94895252 -221.7590332 409.31469727 C-222.65171906 409.38099335 -223.54440491 409.44728943 -224.46414185 409.51559448 C-226.93305043 409.69513202 -229.40239749 409.8645299 -231.87231445 410.02954102 C-232.57745178 410.08122437 -233.28258911 410.13290771 -234.00909424 410.18615723 C-242.88800315 410.74681459 -242.88800315 410.74681459 -246.5090332 407.56469727 C-247.80069987 406.10636393 -249.09236654 404.6480306 -250.3840332 403.18969727 C-252.82026603 401.04876539 -254.22263163 400.53839234 -257.4465332 400.37719727 C-258.80185026 400.99795317 -260.13704387 401.66483507 -261.4465332 402.37719727 C-266.69738431 402.85095827 -270.59820973 401.62058848 -274.7590332 398.43969727 C-275.37391602 397.91504883 -275.98879883 397.39040039 -276.62231445 396.84985352 C-278.51015021 395.32584049 -280.18388557 394.25483029 -282.4465332 393.37719727 C-283.7459082 393.84125977 -283.7459082 393.84125977 -285.0715332 394.31469727 C-289.80343131 395.80436889 -293.61761893 395.18933285 -298.4465332 394.37719727 C-299.21481445 394.30629883 -299.9830957 394.23540039 -300.7746582 394.16235352 C-305.26455397 393.33815936 -307.02797633 391.97045614 -309.69262695 388.19360352 C-310.85985744 386.24392438 -311.9698341 384.2721236 -313.06079102 382.27880859 C-315.40776647 378.00117376 -317.86713487 374.50368863 -321.2590332 370.93969727 C-325.4720346 366.46845585 -329.12143383 362.42364696 -329.63012695 356.09204102 C-329.36911636 351.04864275 -328.11450066 348.92726996 -324.75390625 345.09057617 C-322.39044899 341.99314517 -321.14390827 338.51213164 -319.8215332 334.87719727 C-319.51602539 334.1437207 -319.21051758 333.41024414 -318.89575195 332.65454102 C-318.0960518 330.47389524 -317.53666741 328.7003061 -317.4465332 326.37719727 C-319.57669934 323.03658831 -319.57669934 323.03658831 -322.4465332 320.37719727 C-327.86859704 310.41280842 -324.60742947 299.81174821 -321.60791016 289.59741211 C-319.94656447 284.33441113 -317.73617251 279.8186405 -314.58325195 275.26000977 C-313.18811093 273.3157149 -313.18811093 273.3157149 -313.4465332 270.37719727 C-313.92735352 269.59989258 -314.40817383 268.82258789 -314.90356445 268.02172852 C-317.68230304 263.25918162 -317.39661763 258.70822656 -316.4465332 253.37719727 C-314.34429249 247.77515881 -311.38105377 242.57619988 -308.4465332 237.37719727 C-307.17334661 235.36476616 -307.17334661 235.36476616 -308.0246582 232.92797852 C-310.0633576 223.10192153 -306.98767666 218.04304941 -301.8215332 209.81469727 C-295.96877047 200.97626626 -295.96877047 200.97626626 -295.8840332 190.87719727 C-297.18816206 187.55363141 -298.86179072 184.55787748 -300.6965332 181.50219727 C-302.95045008 177.47734569 -302.41353149 175.83561726 -301.4465332 171.37719727 C-299.9934082 167.84204102 -299.9934082 167.84204102 -298.1965332 164.31469727 C-297.61387695 163.1480957 -297.0312207 161.98149414 -296.4309082 160.77954102 C-294.94144647 158.22575919 -293.69003565 156.41193662 -291.7746582 154.25610352 C-288.1360669 149.75670454 -288.39777457 146.1601913 -288.30786133 140.50292969 C-288.13003221 132.53351773 -286.87696806 127.20438654 -282.7746582 120.21704102 C-281.25203253 116.96130905 -281.1787075 114.6967937 -281.1965332 111.12719727 C-281.12231445 108.11157227 -281.12231445 108.11157227 -280.4465332 105.37719727 C-277.99548032 103.09911025 -275.37963586 101.37422441 -272.6105957 99.50219727 C-270.17317027 97.53834053 -270.17317027 97.53834053 -270.0324707 94.50219727 C-270.18344618 92.4197769 -270.33969259 90.33773193 -270.5012207 88.25610352 C-270.42075603 84.02021325 -268.91160299 82.30925276 -265.9387207 79.43188477 C-254.43115099 69.94445268 -242.19668083 61.98725418 -228.7121582 55.58032227 C-217.90113431 50.43446373 -209.2923642 44.84556629 -202.91918945 34.54907227 C-192.25547239 18.82221102 -165.53166268 5.32816932 -147.21728516 1.74584961 C-145.63092748 1.46036019 -144.04351731 1.18065347 -142.45507812 0.90698242 C-135.81994501 -0.31395381 -130.19359768 -2.69730933 -124.22729492 -5.80664062 C-117.06959758 -9.52179223 -110.81825298 -10.90000044 -102.6965332 -10.81030273 C-101.65348022 -10.80933594 -101.65348022 -10.80933594 -100.58935547 -10.80834961 C-96.4098485 -10.77374865 -92.5117561 -10.32099673 -88.3840332 -9.62280273 C-81.48112742 -8.89568407 -76.59935213 -12.18894896 -70.8918457 -15.64233398 C-48.65376026 -28.42545112 -19.30028961 -11.30776152 0 0 Z M-69.32543945 -8.12670898 C-70.02338623 -7.66828613 -70.72133301 -7.20986328 -71.44042969 -6.73754883 C-72.84235164 -5.79865139 -74.22939767 -4.83708391 -75.59912109 -3.85180664 C-77.53005668 -2.5429318 -79.2643881 -1.45126397 -81.4465332 -0.62280273 C-85.04418945 -1.32592773 -85.04418945 -1.32592773 -88.4465332 -2.62280273 C-91.65671612 -2.82543813 -91.65671612 -2.82543813 -94.7590332 -2.68530273 C-100.25436238 -2.52671733 -100.25436238 -2.52671733 -102.4465332 -3.62280273 C-107.30855177 -4.04393267 -110.22519452 -3.04162615 -114.52075195 -0.81811523 C-119.93759163 1.80187422 -125.02144977 3.4186624 -130.87231445 4.7331543 C-145.53756725 8.06328307 -158.53489683 13.77283767 -171.9465332 20.50219727 C-172.8316861 20.94130432 -173.71683899 21.38041138 -174.6288147 21.83282471 C-177.17196907 23.10217015 -179.70191127 24.39416105 -182.2277832 25.69750977 C-182.98492111 26.07866943 -183.74205902 26.4598291 -184.5221405 26.85253906 C-189.31501296 29.38744529 -192.23421795 31.99856204 -195.4465332 36.37719727 C-192.32032815 36.37719727 -191.3386834 35.98507696 -188.66308594 34.56054688 C-187.90545456 34.16250854 -187.14782318 33.76447021 -186.36723328 33.35437012 C-185.54648819 32.91717651 -184.7257431 32.47998291 -183.88012695 32.02954102 C-182.10984606 31.10589995 -180.33865013 30.18401105 -178.56665039 29.26367188 C-177.63832397 28.78074677 -176.70999756 28.29782166 -175.75354004 27.80026245 C-159.76022896 19.5204055 -144.70651532 12.50624211 -126.95385742 8.91088867 C-123.32074197 8.13756926 -119.81383243 7.0786245 -116.2590332 6.00219727 C-108.74131617 3.73604403 -100.09097009 1.82905164 -92.4465332 4.37719727 C-78.77682058 4.36304065 -78.77682058 4.36304065 -66.7590332 -1.11889648 C-65.58975137 -2.57005876 -64.51078232 -4.09294464 -63.4465332 -5.62280273 C-47.35304779 -10.98729787 -27.49093403 0.2479738 -13.1965332 7.31469727 C-4.3914658 11.77281183 4.08167336 16.33435923 10.86987305 23.62719727 C12.70056043 25.53009273 14.65149452 27.18616639 16.6784668 28.87719727 C20.34988794 32.02719089 22.91297255 35.33394045 25.5534668 39.37719727 C22.9292299 38.30806371 21.38675057 37.20868839 19.3737793 35.17407227 C16.13195217 31.95918553 12.68995806 29.14752185 9.1159668 26.31469727 C8.47336914 25.79842773 7.83077148 25.2821582 7.16870117 24.75024414 C0.56463664 19.48710642 -6.06760407 15.20838581 -13.8840332 11.93969727 C-17.4465332 10.37719727 -17.4465332 10.37719727 -20.5715332 8.43969727 C-24.77672305 5.97102555 -29.29982002 4.74493921 -33.9621582 3.39672852 C-36.29960505 2.71278947 -38.62329628 1.98010569 -40.9309082 1.20141602 C-49.08933894 -1.72095801 -49.08933894 -1.72095801 -57.4465332 -0.62280273 C-59.49136751 0.75407968 -61.38786905 2.20187758 -63.2590332 3.80688477 C-68.73380852 7.73699133 -74.08096217 8.85515102 -80.6340332 9.43969727 C-84.97655367 9.8446784 -88.5518549 10.3303009 -92.4465332 12.37719727 C-94.5597236 12.77864768 -96.68799492 13.1037919 -98.8215332 13.37719727 C-100.06676758 13.5409082 -101.31200195 13.70461914 -102.5949707 13.87329102 C-103.86598633 14.03958008 -105.13700195 14.20586914 -106.4465332 14.37719727 C-108.78006407 14.7300601 -111.11340258 15.08419768 -113.4465332 15.43969727 C-118.26571558 16.15986722 -122.95361874 16.47669671 -127.8215332 16.62719727 C-134.24262358 16.9959761 -137.9597213 18.82071437 -142.4465332 23.37719727 C-138.96781699 24.53676934 -138.10433676 24.15176377 -134.7590332 22.93969727 C-133.95079102 22.65223633 -133.14254883 22.36477539 -132.30981445 22.06860352 C-131.69493164 21.84043945 -131.08004883 21.61227539 -130.4465332 21.37719727 C-131.4365332 23.02719727 -132.4265332 24.67719727 -133.4465332 26.37719727 C-132.38208984 26.09042114 -132.38208984 26.09042114 -131.29614258 25.79785156 C-104.89405489 18.9121219 -63.70939982 12.21017795 -38.4465332 26.37719727 C-35.5090332 29.06469727 -35.5090332 29.06469727 -33.4465332 31.37719727 C-34.25993164 31.03946289 -35.07333008 30.70172852 -35.91137695 30.35375977 C-71.53186327 16.49021841 -111.76889941 25.41062601 -146.4465332 37.37719727 C-143.23494585 38.41681792 -141.16816817 38.30354603 -137.91137695 37.48657227 C-137.02949707 37.27282959 -136.14761719 37.05908691 -135.23901367 36.83886719 C-134.29687012 36.60401611 -133.35472656 36.36916504 -132.3840332 36.12719727 C-115.16538741 32.06085862 -99.16635067 29.87305072 -81.4465332 30.37719727 C-82.4691626 30.51182373 -82.4691626 30.51182373 -83.51245117 30.64916992 C-119.39055488 35.45646465 -152.92206514 44.24282926 -185.4465332 60.37719727 C-186.29151367 60.79614258 -187.13649414 61.21508789 -188.00708008 61.64672852 C-225.78761766 79.62250027 -225.78761766 79.62250027 -250.4465332 111.37719727 C-250.69790039 112.05903076 -250.94926758 112.74086426 -251.20825195 113.44335938 C-253.83365996 121.30656055 -254.44174682 129.30025188 -255.1340332 137.50219727 C-255.26394467 138.95019929 -255.39479738 140.39811719 -255.52661133 141.84594727 C-255.84409392 145.355462 -256.148877 148.86593872 -256.4465332 152.37719727 C-256.52148949 146.77623315 -256.5755108 141.17557016 -256.61132812 135.57421875 C-256.62628205 133.67442733 -256.64665263 131.77466962 -256.67285156 129.875 C-257.07324356 100.0654232 -257.07324356 100.0654232 -247.4465332 88.37719727 C-242.1364703 83.19668616 -236.25002333 79.06827133 -230.0715332 75.00219727 C-212.95633491 63.75678986 -212.95633491 63.75678986 -201.4465332 47.37719727 C-201.7765332 46.38719727 -202.1065332 45.39719727 -202.4465332 44.37719727 C-202.9105957 45.05524414 -203.3746582 45.73329102 -203.8527832 46.43188477 C-209.98956815 54.69822569 -216.78700684 59.09694557 -225.54858398 64.22485352 C-229.15628743 66.41527804 -232.48242256 68.98106969 -235.8527832 71.51391602 C-239.37023259 74.04075842 -243.07818743 76.20549075 -246.84106445 78.34594727 C-253.38596826 83.448421 -256.79487867 90.58926566 -260.0090332 98.06469727 C-260.39542969 98.94101807 -260.78182617 99.81733887 -261.17993164 100.72021484 C-263.7650667 106.63569527 -266.11186035 112.60514316 -268.33325195 118.66625977 C-269.35915781 121.16443052 -270.5366413 123.18885043 -272.0090332 125.43969727 C-275.24444667 130.85571855 -275.98042224 137.05869679 -277.01513672 143.19580078 C-277.86710436 148.11675452 -279.04909337 151.93625719 -281.4465332 156.37719727 C-281.94566506 161.76782133 -280.89043076 166.23331223 -279.4465332 171.37719727 C-280.0652832 171.60407227 -280.6840332 171.83094727 -281.3215332 172.06469727 C-283.60102002 173.26024759 -283.60102002 173.26024759 -284.8840332 175.62719727 C-285.65220515 179.38270457 -284.20815077 181.06535623 -282.4465332 184.37719727 C-282.54442096 187.4117176 -283.78397981 188.90445758 -285.4465332 191.50219727 C-288.40560535 196.53047567 -288.62405846 202.00976503 -288.3215332 207.74829102 C-288.02924658 213.31087083 -288.98666181 217.27634501 -291.0090332 222.50219727 C-293.8269766 229.87036087 -294.09679053 233.61461057 -290.8840332 240.93969727 C-288.32049934 247.06988694 -289.31670493 251.25534551 -291.5090332 257.31469727 C-293.39704007 262.6707451 -293.89216082 265.88381233 -292.4465332 271.37719727 C-291.0234348 274.28350095 -291.0234348 274.28350095 -289.4465332 276.37719727 C-287.13954752 272.91671875 -286.33177242 271.32155784 -286.27075195 267.26391602 C-285.9685402 255.42365014 -285.06741924 245.06444247 -279.4465332 234.37719727 C-280.30259717 243.59354556 -280.30259717 243.59354556 -281.0090332 247.43969727 C-281.6030925 251.42838112 -281.52702481 255.3526171 -281.4465332 259.37719727 C-276.78092224 255.24479898 -273.82994915 249.33423759 -270.55249023 244.09301758 C-269.62959688 242.66120864 -268.63759095 241.27425235 -267.63012695 239.90063477 C-260.27960482 229.4735783 -260.41168581 215.86087302 -260.2980957 203.57006836 C-260.11898663 187.78384258 -256.47769416 175.22596213 -250.34985352 160.79443359 C-248.19506321 155.61175728 -246.68190279 150.73246288 -245.8215332 145.18969727 C-242.5098165 125.02370805 -231.75856562 108.68928579 -216.12573242 95.7746582 C-213.78387589 93.82572148 -211.55908459 91.75680308 -209.3215332 89.68969727 C-207.69923977 88.24914346 -206.07409921 86.81179133 -204.4465332 85.37719727 C-203.46555664 84.49418945 -202.48458008 83.61118164 -201.47387695 82.70141602 C-173.04174521 57.50628094 -134.95392331 44.2761237 -97.14428711 46.51342773 C-73.21056694 48.30452445 -53.70269949 56.29592615 -37.4465332 74.37719727 C-37.1165332 75.03719727 -36.7865332 75.69719727 -36.4465332 76.37719727 C-37.3437207 75.74813477 -38.2409082 75.11907227 -39.1652832 74.47094727 C-52.06151838 65.56698657 -65.12391288 58.20244945 -80.4465332 54.37719727 C-81.55834961 54.09102539 -81.55834961 54.09102539 -82.69262695 53.79907227 C-109.85843556 49.63750158 -139.74205782 57.16253105 -163.4465332 70.37719727 C-164.08864746 70.73330078 -164.73076172 71.0894043 -165.39233398 71.45629883 C-174.099116 76.34300498 -182.05167202 81.87460661 -189.84057617 88.10668945 C-191.47517294 89.39985479 -193.12975648 90.66177852 -194.79418945 91.91625977 C-216.69159677 108.42623505 -230.84102932 125.87078053 -240.4465332 151.37719727 C-240.88852051 152.53429199 -241.33050781 153.69138672 -241.78588867 154.88354492 C-243.03966357 158.16808978 -244.27918874 161.45775649 -245.5100708 164.75094604 C-246.00268896 166.06723734 -246.49769958 167.38263618 -246.99530029 168.697052 C-251.31032323 180.1329049 -253.4743259 190.8736282 -254.5090332 203.00219727 C-254.66589567 204.76527959 -254.82344169 206.52830124 -254.98168945 208.29125977 C-255.05661621 209.13333984 -255.13154297 209.97541992 -255.20874023 210.84301758 C-255.5700866 214.69391626 -256.00615363 218.53459316 -256.4465332 222.37719727 C-252.91131963 219.43118596 -251.17906893 217.10323959 -249.6340332 212.75219727 C-245.91657315 202.70905922 -239.06359528 195.11679927 -230.4777832 188.96704102 C-226.18998105 185.874876 -222.74085008 182.70280937 -219.36450195 178.63110352 C-217.96438715 176.98575475 -216.49841302 175.3958097 -214.99731445 173.84204102 C-209.60412655 168.23925238 -206.10930935 163.08140319 -202.86450195 156.03735352 C-200.76775387 152.10378479 -198.06255021 149.87942 -194.4465332 147.37719727 C-189.27778839 143.69982941 -185.06333167 140.09144 -181.0871582 135.11157227 C-178.08008253 131.9326637 -175.96120065 131.41857756 -171.55981445 131.06469727 C-166.99384765 130.57461894 -164.8804188 128.64628486 -161.6340332 125.37719727 C-160.59959836 124.3725055 -159.56309772 123.3699368 -158.5246582 122.36938477 C-158.0109668 121.86632812 -157.49727539 121.36327148 -156.96801758 120.8449707 C-146.71080966 110.94985934 -137.0440741 105.08369999 -122.6965332 104.12719727 C-117.1597177 103.44574305 -112.41718546 100.77448732 -107.4465332 98.37719727 C-73.71889362 82.20061778 -35.66130951 78.96044325 -0.18481445 90.43188477 C9.60075491 93.92243226 19.57609369 98.84676757 27.89331055 105.15063477 C29.47754552 106.5752744 29.47754552 106.5752744 31.5534668 106.37719727 C33.26576928 104.75745168 34.92509941 103.08130267 36.5534668 101.37719727 C37.42487305 100.73395508 38.2962793 100.09071289 39.1940918 99.42797852 C42.78251103 94.7879861 42.17067821 90.44658245 41.9909668 84.75219727 C41.98516602 83.70290039 41.97936523 82.65360352 41.97338867 81.57250977 C42.02491732 75.62858078 42.02491732 75.62858078 39.5534668 70.37719727 C39.3805039 68.59085912 39.2866613 66.79630767 39.2409668 65.00219727 C37.71759136 45.6599455 22.86256064 25.88336288 8.5534668 13.37719727 C-10.55552484 -2.24926795 -45.32074142 -23.939739 -69.32543945 -8.12670898 Z M-117.6652832 108.11547852 C-120.59538125 109.44472243 -122.1052968 109.6023515 -125.2590332 109.31469727 C-135.05113649 109.06624091 -143.34814464 115.04742403 -150.4465332 121.37719727 C-151.71216002 122.66009649 -152.96252696 123.95816035 -154.20043945 125.26782227 C-155.17762939 126.29588989 -155.17762939 126.29588989 -156.17456055 127.34472656 C-157.46193082 128.72111882 -158.72760608 130.11819041 -159.96850586 131.53662109 C-164.39957477 136.30203102 -164.39957477 136.30203102 -167.58886719 136.53100586 C-169.55799226 136.243016 -171.50554675 135.81647315 -173.4465332 135.37719727 C-176.94231442 137.32833097 -178.40834331 139.31766597 -180.5715332 142.68969727 C-182.84311851 146.07183538 -185.40714437 147.7835362 -188.8840332 149.87719727 C-195.33060928 153.77633602 -199.4441001 157.54323836 -202.17700195 164.62719727 C-204.37022697 169.67866648 -207.46424085 173.13671533 -211.3215332 177.00219727 C-212.52863748 178.24304854 -213.7343769 179.48522907 -214.9387207 180.72875977 C-215.52733887 181.33018799 -216.11595703 181.93161621 -216.72241211 182.55126953 C-218.42505905 184.3544551 -220.0080173 186.21955169 -221.5871582 188.13110352 C-223.9142992 190.88719278 -226.21906327 192.80278522 -229.3215332 194.68969727 C-237.17486835 199.94894433 -243.69881148 207.82324079 -246.1652832 217.07250977 C-247.81410445 221.32526212 -250.26781071 224.44044405 -253.0715332 228.00219727 C-258.16673992 234.62779606 -262.89113792 241.36655553 -267.4465332 248.37719727 C-268.59044991 250.08681458 -269.73612359 251.79525839 -270.8840332 253.50219727 C-273.78506195 257.58121376 -273.78506195 257.58121376 -274.2590332 262.43969727 C-274.46997819 266.86954191 -275.68071893 269.56932491 -277.66918945 273.45922852 C-278.05397461 274.40862305 -278.05397461 274.40862305 -278.4465332 275.37719727 C-277.9515332 276.36719727 -277.9515332 276.36719727 -277.4465332 277.37719727 C-276.7452832 276.32661133 -276.0440332 275.27602539 -275.3215332 274.19360352 C-267.53535926 262.61915118 -261.44545242 253.61040152 -248.69262695 247.25610352 C-244.29370031 244.70991372 -241.15614286 241.46996723 -237.7043457 237.77954102 C-235.72453672 235.67299686 -233.71478451 233.80163713 -231.5090332 231.93969727 C-226.19045193 227.3965149 -221.34822951 222.35998782 -216.4465332 217.37719727 C-220.7115348 217.37719727 -222.946857 219.8219314 -226.1340332 222.37719727 C-227.04378906 223.09262695 -227.04378906 223.09262695 -227.97192383 223.82250977 C-229.46855716 225.00096121 -230.95822493 226.18824915 -232.4465332 227.37719727 C-228.32828996 219.856927 -228.32828996 219.856927 -225.1965332 216.87719727 C-224.29354492 216.01094727 -224.29354492 216.01094727 -223.37231445 215.12719727 C-220.7442182 212.7389881 -218.04208825 210.44070418 -215.3449707 208.13110352 C-213.53426474 206.45824966 -212.04141315 204.74075493 -210.5090332 202.81469727 C-207.12739445 198.70513082 -202.94518407 196.13995568 -198.4465332 193.37719727 C-193.82856877 190.49096949 -190.00279274 187.23014687 -186.08325195 183.47485352 C-179.33011688 178.10235939 -172.03086897 175.37713888 -163.8215332 173.00219727 C-155.8542093 170.58860198 -148.51401547 167.75527465 -141.0559082 164.08422852 C-137.04064508 162.18523503 -132.97897763 160.55827474 -128.8215332 159.00219727 C-128.15782715 158.75139404 -127.49412109 158.50059082 -126.81030273 158.2421875 C-116.96127117 154.6141955 -109.09609973 154.82007839 -99.1965332 157.81469727 C-97.62888319 158.27192852 -96.06117681 158.72896655 -94.4934082 159.18579102 C-93.81117188 159.39002686 -93.12893555 159.5942627 -92.42602539 159.8046875 C-90.44312076 160.37818421 -88.45191174 160.88874355 -86.4465332 161.37719727 C-86.4465332 162.03719727 -86.4465332 162.69719727 -86.4465332 163.37719727 C-87.47391602 163.23282227 -88.50129883 163.08844727 -89.55981445 162.93969727 C-97.53725132 161.85414775 -105.380202 160.8442865 -113.4465332 161.37719727 C-114.30504883 161.43391602 -115.16356445 161.49063477 -116.0480957 161.54907227 C-127.86809968 162.94749527 -140.10275062 167.98951342 -150.59887695 173.51782227 C-154.39467121 175.46969935 -158.09924307 176.39794548 -162.2590332 177.25219727 C-170.10330902 179.03565478 -178.79125917 181.39428621 -183.4465332 188.37719727 C-179.68117021 187.70012282 -176.14523091 186.6852225 -172.5090332 185.50219727 C-154.77323388 180.0542051 -138.75486566 179.56577215 -120.4465332 181.37719727 C-120.4465332 182.03719727 -120.4465332 182.69719727 -120.4465332 183.37719727 C-121.24534912 183.37606934 -122.04416504 183.37494141 -122.8671875 183.3737793 C-144.04212838 183.44364855 -161.74305254 186.30517615 -181.4465332 194.37719727 C-178.0042421 195.52462763 -176.46885468 195.17885376 -172.9465332 194.50219727 C-153.61262565 190.81212351 -128.97990971 188.89055082 -110.4465332 196.37719727 C-109.71950195 196.64274414 -108.9924707 196.90829102 -108.2434082 197.18188477 C-102.0248469 199.83614874 -91.48610929 206.29804509 -88.4465332 212.37719727 C-89.12458008 212.00208008 -89.80262695 211.62696289 -90.5012207 211.24047852 C-92.46182412 210.16241819 -94.42702907 209.0927014 -96.39575195 208.02954102 C-98.22131154 207.04079364 -100.03938942 206.03773147 -101.84106445 205.00610352 C-106.91763669 202.2299882 -111.99395355 200.49854555 -117.5715332 199.06469727 C-118.22855225 198.89309082 -118.88557129 198.72148437 -119.5625 198.54467773 C-124.31800688 197.4052571 -128.59800666 197.23141751 -133.4465332 197.37719727 C-130.6463208 199.24400553 -128.3263108 200.2142198 -125.1965332 201.37719727 C-116.44064522 204.94361993 -108.56954754 210.37916919 -101.1340332 216.18188477 C-99.51918382 217.56986971 -99.51918382 217.56986971 -97.4465332 217.37719727 C-97.4465332 218.36719727 -97.4465332 219.35719727 -97.4465332 220.37719727 C-98.4880957 219.77391602 -99.5296582 219.17063477 -100.6027832 218.54907227 C-111.85635642 212.20860248 -123.19954299 206.90917764 -136.4465332 207.37719727 C-133.82123979 211.31513739 -130.86706713 212.21680711 -126.4465332 213.37719727 C-124.51008278 213.57524333 -122.57242761 213.76168145 -120.6340332 213.93969727 C-111.56943608 215.12342701 -104.00618714 219.98550001 -96.21142578 224.4909668 C-94.47779758 225.52677921 -94.47779758 225.52677921 -92.4465332 225.37719727 C-92.4465332 226.03719727 -92.4465332 226.69719727 -92.4465332 227.37719727 C-93.5809082 226.89508789 -94.7152832 226.41297852 -95.8840332 225.91625977 C-97.40474036 225.27793824 -98.92558086 224.63993435 -100.4465332 224.00219727 C-101.19032227 223.68508789 -101.93411133 223.36797852 -102.70043945 223.04125977 C-109.63355564 220.14743736 -116.14526844 218.37275583 -123.63720703 217.79516602 C-132.16435347 217.12013705 -138.20466787 215.11077887 -145.4465332 210.37719727 C-148.30550674 208.74355133 -150.38249117 208.12534106 -153.66918945 208.06860352 C-154.45487305 208.0434668 -155.24055664 208.01833008 -156.05004883 207.99243164 C-157.69319731 207.95719335 -159.33643646 207.92596172 -160.97973633 207.89868164 C-161.76413086 207.87225586 -162.54852539 207.84583008 -163.35668945 207.81860352 C-164.06962158 207.80514893 -164.78255371 207.79169434 -165.51708984 207.77783203 C-167.9512684 207.2723927 -168.8675673 206.24550085 -170.4465332 204.37719727 C-168.1365332 204.37719727 -165.8265332 204.37719727 -163.4465332 204.37719727 C-163.4465332 203.38719727 -163.4465332 202.39719727 -163.4465332 201.37719727 C-165.31365349 199.10511024 -165.31365349 199.10511024 -168.2590332 199.00219727 C-181.97004328 199.48378233 -197.20194244 207.69156596 -207.4465332 216.37719727 C-203.93507314 217.54768395 -203.51467933 217.2278533 -200.3059082 215.72485352 C-199.08049316 215.17764648 -199.08049316 215.17764648 -197.83032227 214.61938477 C-196.96117187 214.23008789 -196.09202148 213.84079102 -195.1965332 213.43969727 C-186.23562174 209.59884164 -179.14969084 208.31867098 -169.4465332 209.37719727 C-175.31095781 212.06968641 -181.2477452 214.49680626 -187.2644043 216.82714844 C-205.68855085 223.99240844 -222.47579749 232.66532441 -238.4465332 244.37719727 C-237.7865332 244.70719727 -237.1265332 245.03719727 -236.4465332 245.37719727 C-234.83774193 244.66289394 -233.2299852 243.94617986 -231.62719727 243.21850586 C-218.76192313 238.25503355 -200.00547765 235.41975103 -187.1340332 240.68969727 C-186.23040039 241.11895508 -185.32676758 241.54821289 -184.39575195 241.99047852 C-176.84845953 245.53920542 -169.40530531 247.41752801 -161.2590332 249.06469727 C-159.65898437 249.40210938 -159.65898437 249.40210938 -158.02661133 249.74633789 C-153.41506063 250.69518103 -149.1716192 251.51238292 -144.4465332 251.37719727 C-144.4465332 252.03719727 -144.4465332 252.69719727 -144.4465332 253.37719727 C-148.69781242 253.12453374 -152.94710472 252.84666039 -157.1965332 252.56469727 C-158.97737305 252.45931641 -158.97737305 252.45931641 -160.79418945 252.35180664 C-170.47347868 251.690653 -179.57711991 250.25496209 -188.4465332 246.18969727 C-194.01348366 243.84240475 -199.48359846 243.6518615 -205.4465332 244.37719727 C-206.21610352 244.69430664 -206.98567383 245.01141602 -207.77856445 245.33813477 C-211.41062756 246.75267179 -214.96069799 247.01271282 -218.8215332 247.37719727 C-224.263955 247.89643892 -229.2251968 248.72400368 -234.4465332 250.37719727 C-234.4465332 250.70719727 -234.4465332 251.03719727 -234.4465332 251.37719727 C-233.60582275 251.35625 -232.7651123 251.33530273 -231.89892578 251.3137207 C-228.71374743 251.2446535 -225.52895644 251.19497152 -222.34326172 251.1574707 C-220.9769213 251.1376246 -219.61066261 251.11053813 -218.24462891 251.07543945 C-206.32854164 250.77742771 -195.24246435 252.1745734 -185.1965332 259.00219727 C-184.30450195 259.59258789 -183.4124707 260.18297852 -182.4934082 260.79125977 C-180.4465332 262.37719727 -180.4465332 262.37719727 -179.4465332 264.37719727 C-180.1271582 264.05106445 -180.8077832 263.72493164 -181.5090332 263.38891602 C-201.47678424 254.38749633 -222.96501668 254.56551673 -243.6965332 261.12719727 C-250.37796461 263.82428884 -253.3510623 268.45170523 -256.8215332 274.50219727 C-259.44779982 278.82337078 -262.71813771 281.55013897 -267.4465332 283.37719727 C-268.71883789 283.44165039 -269.99114258 283.50610352 -271.30200195 283.57250977 C-275.74446596 284.04824875 -277.57131955 285.94552135 -280.3671875 289.29199219 C-280.88837158 289.95948486 -281.40955566 290.62697754 -281.9465332 291.31469727 C-282.50187744 291.99185791 -283.05722168 292.66901855 -283.62939453 293.36669922 C-285.25402488 295.35576794 -286.85029625 297.36533247 -288.4465332 299.37719727 C-289.28571289 300.39297852 -290.12489258 301.40875977 -290.98950195 302.45532227 C-294.63516566 306.75505241 -294.63516566 306.75505241 -297.46606445 311.58422852 C-298.4465332 313.37719727 -298.4465332 313.37719727 -301.4465332 314.37719727 C-302.96793458 317.42000003 -302.34205014 320.25385011 -302.1965332 323.62719727 C-301.99474666 331.88192413 -301.99474666 331.88192413 -304.8840332 335.12719727 C-305.7296582 335.86969727 -306.5752832 336.61219727 -307.4465332 337.37719727 C-308.4168221 340.28806395 -308.61121168 342.27943411 -308.6340332 345.31469727 C-308.64821289 346.1693457 -308.66239258 347.02399414 -308.67700195 347.90454102 C-308.59583075 350.39111284 -308.59583075 350.39111284 -307.41137695 352.44750977 C-306.00916368 355.25193631 -306.73259545 357.65959479 -307.1418457 360.67407227 C-308.43890619 372.05236648 -308.43890619 372.05236648 -304.4465332 382.37719727 C-303.25495779 379.99404644 -303.43846137 378.70395532 -303.5715332 376.06469727 C-303.58115835 373.08090042 -303.38738096 371.19604353 -302.4465332 368.31469727 C-300.4465332 366.37719727 -300.4465332 366.37719727 -296.8215332 365.81469727 C-290.73820248 366.21875613 -285.32555675 368.44872574 -281.0715332 372.81469727 C-279.48672992 375.31381014 -277.91485285 377.80763789 -276.4465332 380.37719727 C-275.2915332 379.88219727 -274.1365332 379.38719727 -272.9465332 378.87719727 C-268.44429985 377.35511522 -264.21634889 377.17733818 -259.5090332 377.25219727 C-258.81358398 377.26057617 -258.11813477 377.26895508 -257.40161133 377.27758789 C-254.42531233 377.31958647 -251.44963338 377.37712394 -248.47387695 377.44750977 C-243.23293024 377.3017029 -240.73863012 376.19949176 -236.9465332 372.50219727 C-234.87446408 370.20084181 -233.16894665 367.96081744 -231.4465332 365.37719727 C-229.09575592 364.33983325 -226.79598893 363.43002411 -224.3840332 362.56469727 C-218.16513935 360.19457234 -212.63117941 357.64497972 -207.4465332 353.37719727 C-206.88579102 352.92473633 -206.32504883 352.47227539 -205.74731445 352.00610352 C-199.95162183 346.38559555 -198.49178695 337.92489141 -196.4465332 330.37719727 C-196.12426758 329.22735352 -195.80200195 328.07750977 -195.4699707 326.89282227 C-194.77672359 324.39194949 -194.10582473 321.8871421 -193.4465332 319.37719727 C-195.87065817 349.27618919 -195.87065817 349.27618919 -204.93481445 357.68579102 C-210.52744197 361.90153375 -215.71156705 365.09945583 -222.1340332 367.81469727 C-228.4238924 370.48192106 -232.23024492 373.86230857 -236.5480957 379.12719727 C-239.38168247 382.48552233 -241.27737232 383.8676735 -245.4465332 385.37719727 C-252.99653997 385.27686495 -260.62919498 383.88863009 -268.0715332 382.68969727 C-269.52946289 382.48570312 -269.52946289 382.48570312 -271.0168457 382.27758789 C-277.2541024 381.25900363 -281.51393013 379.50595375 -286.5480957 375.65722656 C-289.26823381 373.82316225 -291.27130792 373.77239245 -294.4465332 374.37719727 C-295.4365332 375.03719727 -296.4265332 375.69719727 -297.4465332 376.37719727 C-297.89845966 379.31471925 -297.89567657 380.75695166 -296.1340332 383.18969727 C-294.38153779 384.66494397 -294.38153779 384.66494397 -291.4465332 384.37719727 C-291.4465332 385.36719727 -291.4465332 386.35719727 -291.4465332 387.37719727 C-293.7565332 387.04719727 -296.0665332 386.71719727 -298.4465332 386.37719727 C-296.98609927 388.12695194 -296.98609927 388.12695194 -294.4465332 389.37719727 C-290.56836162 389.4625882 -286.84601768 389.14422241 -283.4152832 387.26391602 C-281.4465332 386.37719727 -281.4465332 386.37719727 -279.4152832 386.53735352 C-276.99042104 387.57176892 -275.72156293 388.87426704 -273.9465332 390.81469727 C-271.61907833 393.34844928 -269.68533355 395.12702033 -266.4465332 396.37719727 C-263.75660267 396.07341675 -263.75660267 396.07341675 -261.4465332 395.37719727 C-261.4465332 394.71719727 -261.4465332 394.05719727 -261.4465332 393.37719727 C-254.47844507 393.55100445 -250.88159997 395.0513278 -245.4465332 399.37719727 C-244.7865332 399.37719727 -244.1265332 399.37719727 -243.4465332 399.37719727 C-243.3227832 400.01657227 -243.1990332 400.65594727 -243.0715332 401.31469727 C-242.8652832 401.99532227 -242.6590332 402.67594727 -242.4465332 403.37719727 C-240.10727859 404.54682457 -238.93740101 404.44498415 -236.34399414 404.32421875 C-235.49073547 404.28595474 -234.63747681 404.24769073 -233.75836182 404.20826721 C-232.35877228 404.13526649 -232.35877228 404.13526649 -230.9309082 404.06079102 C-229.95611511 404.01280869 -228.98132202 403.96482635 -227.97698975 403.91539001 C-217.2916555 403.36166273 -206.6256935 402.56887711 -195.96166992 401.70263672 C-192.63047309 401.43437749 -189.29836412 401.18017563 -185.96606445 400.92602539 C-183.83969419 400.7556502 -181.71338912 400.5844589 -179.5871582 400.41235352 C-178.59468079 400.33831802 -177.60220337 400.26428253 -176.57965088 400.18800354 C-175.66979431 400.11129929 -174.75993774 400.03459503 -173.82250977 399.95556641 C-172.62298676 399.86016319 -172.62298676 399.86016319 -171.39923096 399.76283264 C-169.21863342 399.52043672 -169.21863342 399.52043672 -167.4465332 397.37719727 C-164.74317897 396.52258851 -162.05556246 395.74303659 -159.3215332 395.00219727 C-148.70785074 391.95855155 -142.44488749 388.64463419 -134.3059082 380.95532227 C-131.60767163 378.52248601 -128.86433035 376.44825122 -125.8840332 374.37719727 C-116.95712815 368.00083652 -110.18690752 360.30034717 -103.5090332 351.68969727 C-102.95296387 350.97692627 -102.39689453 350.26415527 -101.82397461 349.52978516 C-97.80321799 344.22241107 -95.2440061 339.3544294 -93.5090332 332.87719727 C-92.4465332 329.37719727 -92.4465332 329.37719727 -90.52075195 326.25610352 C-88.0271003 321.97111006 -87.08143088 317.6584196 -86.1965332 312.81469727 C-86.02959961 311.90647217 -85.86266602 310.99824707 -85.69067383 310.0625 C-83.12477271 294.78360615 -82.98779765 279.99195891 -88.4465332 265.37719727 C-88.90899428 264.05787184 -89.36852367 262.7375159 -89.82543945 261.41625977 C-90.99608361 258.05619241 -92.20938742 254.71343465 -93.4465332 251.37719727 C-92.7865332 251.37719727 -92.1265332 251.37719727 -91.4465332 251.37719727 C-91.36274414 251.90700195 -91.27895508 252.43680664 -91.19262695 252.98266602 C-89.81029763 257.41914705 -86.87878797 261.12265049 -84.35668945 264.99047852 C-76.73632172 278.50143726 -79.40403431 295.54020411 -80.4465332 310.37719727 C-78.16986021 308.10052427 -77.92285828 306.98275163 -77.19262695 303.90454102 C-76.97799805 303.00413086 -76.76336914 302.1037207 -76.54223633 301.17602539 C-76.3250293 300.23178711 -76.10782227 299.28754883 -75.8840332 298.31469727 C-75.55242187 296.93894531 -75.55242187 296.93894531 -75.21411133 295.53540039 C-70.17954826 274.07386416 -71.68431421 257.36456517 -83.2590332 238.50219727 C-84.96670149 235.77963779 -86.6939937 233.0710772 -88.4465332 230.37719727 C-78.17056503 238.01077363 -70.35170235 249.86348638 -67.83325195 262.43969727 C-66.41101257 273.24297017 -67.70374435 284.67149429 -69.4465332 295.37719727 C-67.7965332 295.37719727 -66.1465332 295.37719727 -64.4465332 295.37719727 C-65.69111355 300.77037876 -68.42846157 304.0585479 -71.9855957 308.13110352 C-73.73638198 310.82282039 -73.47153248 312.23728799 -73.4465332 315.37719727 C-74.73168945 317.26391602 -74.73168945 317.26391602 -76.5090332 319.06469727 C-82.60774642 325.65823508 -87.62975449 331.99541796 -89.7434082 340.85766602 C-91.72905617 347.97290455 -94.73904489 352.32932616 -99.8215332 357.56469727 C-100.43859131 358.21180664 -101.05564941 358.85891602 -101.69140625 359.52563477 C-109.72809227 367.8686266 -118.09322143 375.93050327 -127.4465332 382.79516602 C-129.47886182 384.31246458 -129.47886182 384.31246458 -131.0715332 386.17797852 C-137.82162549 393.47495328 -148.09073893 394.47262486 -157.4465332 396.37719727 C-157.4465332 396.70719727 -157.4465332 397.03719727 -157.4465332 397.37719727 C-141.61892568 397.879661 -127.94618282 395.08855655 -113.2590332 389.50219727 C-110.39337363 388.4345669 -107.52388377 387.37753839 -104.65356445 386.32250977 C-103.95944458 386.06496414 -103.26532471 385.80741852 -102.5501709 385.54206848 C-98.08044982 383.90429628 -93.59364273 382.52462463 -88.99731445 381.27172852 C-83.26178472 379.6875403 -78.09794137 377.6748653 -72.8215332 374.93969727 C-71.98960449 374.51430664 -71.15767578 374.08891602 -70.30053711 373.65063477 C-56.48541125 366.41796434 -42.61971743 358.39464296 -32.4465332 346.37719727 C-31.81618164 345.63727539 -31.18583008 344.89735352 -30.53637695 344.13500977 C-28.44965317 341.58980663 -26.45009479 338.98842484 -24.4465332 336.37719727 C-23.4359095 335.10549293 -22.42409841 333.83473169 -21.41137695 332.56469727 C-13.41596464 322.44261889 -6.29464167 311.94457667 -0.4543457 300.41918945 C1.64092763 296.40603147 3.20177235 294.50993905 7.4284668 292.87719727 C13.34854864 290.17360629 17.04337283 287.09527723 19.53393555 280.96313477 C19.87038086 280.04790039 20.20682617 279.13266602 20.5534668 278.18969727 C24.06937851 269.06671066 30.27446371 261.50586258 35.95043945 253.62817383 C41.00246925 246.53409604 45.49904194 239.08338149 49.5534668 231.37719727 C50.09616211 230.45293945 50.63885742 229.52868164 51.19799805 228.57641602 C55.40048481 218.65757838 51.20017707 203.12418997 47.5534668 193.37719727 C36.31901136 166.6948802 23.95208455 150.32220479 -0.97363281 135.04394531 C-1.67109619 134.60864502 -2.36855957 134.17334473 -3.0871582 133.72485352 C-3.71138672 133.34337158 -4.33561523 132.96188965 -4.97875977 132.56884766 C-6.4465332 131.37719727 -6.4465332 131.37719727 -7.4465332 128.37719727 C5.99039898 135.24930811 18.06405922 143.63205619 29.5534668 153.37719727 C30.34865723 153.93093018 31.14384766 154.48466309 31.96313477 155.05517578 C35.06639043 157.83699148 36.63859589 160.82469073 38.3659668 164.53735352 C38.70108276 165.23517944 39.03619873 165.93300537 39.38146973 166.65197754 C40.45568537 168.90704283 41.50706378 171.17160378 42.5534668 173.43969727 C42.91174561 174.20974091 43.27002441 174.97978455 43.63916016 175.77316284 C60.85311883 212.92649443 60.85311883 212.92649443 54.25268555 230.92407227 C52.5192635 234.44670465 50.77308342 237.94582532 48.8659668 241.37719727 C48.49439453 242.04654297 48.12282227 242.71588867 47.73999023 243.40551758 C43.42613014 250.94039321 38.36177898 257.96268706 33.2265625 264.95532227 C29.12983733 270.64885564 26.11546688 276.15656086 23.63720703 282.7265625 C20.54515719 290.28916333 15.59220793 294.24720318 8.94018555 298.68188477 C2.63880789 303.15782241 -0.57378612 309.26565222 -4.30200195 315.88891602 C-8.38548924 322.78776452 -13.55235223 329.04449676 -18.4465332 335.37719727 C-15.4594978 335.70442485 -15.4594978 335.70442485 -13.7902832 333.94360352 C-13.1818457 333.28231445 -12.5734082 332.62102539 -11.9465332 331.93969727 C-7.13846032 326.94770902 -1.83798629 322.71855034 3.5534668 318.37719727 C19.88830585 305.20864905 33.04099927 290.62455619 42.59643555 271.82299805 C44.65047474 267.85301492 46.92484935 264.43680311 49.7409668 260.93969727 C54.36968578 255.03241605 57.91314062 248.6524172 61.4909668 242.06469727 C62.05904053 241.02579346 62.62711426 239.98688965 63.21240234 238.91650391 C72.4237813 221.68459706 69.27146956 204.49094131 64.42797852 186.08081055 C62.74898721 180.89009315 59.96985258 176.8527975 56.7644043 172.48657227 C53.22197203 167.50463572 51.00885633 161.94993087 48.5534668 156.37719727 C45.82567796 150.28395466 41.6401474 146.27340229 36.7956543 141.70922852 C32.79382547 137.54704766 32.21005887 134.06766193 31.5534668 128.37719727 C32.2134668 128.37719727 32.8734668 128.37719727 33.5534668 128.37719727 C33.77518555 129.07844727 33.9969043 129.77969727 34.2253418 130.50219727 C35.85714583 134.03457306 38.15981395 136.58470605 40.8034668 139.37719727 C41.26881836 139.88508789 41.73416992 140.39297852 42.21362305 140.91625977 C44.6226929 143.50451663 47.03574539 145.78466503 49.8503418 147.92797852 C52.87227589 150.66606042 53.27290201 151.6075647 53.5534668 155.56469727 C54.55186246 163.0476223 58.00152123 168.70373048 63.1784668 174.12719727 C66.68850449 177.99839639 67.44628893 183.48966867 68.65893555 188.42797852 C68.95413086 189.4012207 69.24932617 190.37446289 69.5534668 191.37719727 C70.2134668 191.70719727 70.8734668 192.03719727 71.5534668 192.37719727 C73.4248902 188.63435045 72.99374325 184.96060113 71.9050293 181.04516602 C69.03698234 173.26221808 64.59720966 166.4901161 58.8034668 160.56469727 C56.47009192 157.25908286 56.00748505 155.45995983 55.2409668 151.56469727 C54.07642921 145.80155957 52.21547418 140.8000846 49.7409668 135.50219727 C49.2617981 134.45068481 49.2617981 134.45068481 48.77294922 133.37792969 C45.08755802 125.71875701 39.80145312 120.15013726 33.1159668 115.00219727 C32.21297852 114.30284058 32.21297852 114.30284058 31.29174805 113.58935547 C-12.94763988 80.01563609 -70.01840149 82.38384943 -117.6652832 108.11547852 Z M-194.4465332 198.37719727 C-196.62646489 199.57637383 -198.46188626 200.86259828 -200.4465332 202.37719727 C-198.52598419 203.62191187 -198.52598419 203.62191187 -196.65893555 202.84814453 C-195.95720215 202.549646 -195.25546875 202.25114746 -194.5324707 201.94360352 C-193.39165039 201.46503906 -193.39165039 201.46503906 -192.2277832 200.97680664 C-191.4337207 200.63456055 -190.6396582 200.29231445 -189.8215332 199.93969727 C-188.61883789 199.43212891 -188.61883789 199.43212891 -187.3918457 198.91430664 C-185.40713356 198.07552948 -183.42644446 197.22724482 -181.4465332 196.37719727 C-186.11977549 194.81944984 -189.95878468 196.65167535 -194.4465332 198.37719727 Z M74.5534668 209.37719727 C74.69526367 210.05782227 74.83706055 210.73844727 74.9831543 211.43969727 C77.32950307 226.91736638 68.65259293 239.56042541 60.78540039 252.19116211 C60.22546387 253.09560059 59.66552734 254.00003906 59.08862305 254.93188477 C58.32110718 256.14593994 58.32110718 256.14593994 57.53808594 257.38452148 C57.21316162 258.04210449 56.8882373 258.6996875 56.5534668 259.37719727 C56.8834668 260.03719727 57.2134668 260.69719727 57.5534668 261.37719727 C68.0564938 252.16200736 77.1947154 239.05310112 78.9909668 224.93969727 C78.3385712 219.62733311 76.97508933 214.53057895 75.5534668 209.37719727 C75.2234668 209.37719727 74.8934668 209.37719727 74.5534668 209.37719727 Z M-214.4465332 213.37719727 C-214.7765332 214.03719727 -215.1065332 214.69719727 -215.4465332 215.37719727 C-214.4565332 215.04719727 -213.4665332 214.71719727 -212.4465332 214.37719727 C-213.1065332 214.04719727 -213.7665332 213.71719727 -214.4465332 213.37719727 Z M-279.4465332 277.37719727 C-278.4465332 279.37719727 -278.4465332 279.37719727 -278.4465332 279.37719727 Z M-280.4465332 279.37719727 C-279.4465332 281.37719727 -279.4465332 281.37719727 -279.4465332 281.37719727 Z M40.5534668 284.37719727 C41.5534668 286.37719727 41.5534668 286.37719727 41.5534668 286.37719727 Z M38.5534668 287.37719727 C39.5534668 289.37719727 39.5534668 289.37719727 39.5534668 289.37719727 Z M36.5534668 290.37719727 C31.2734668 295.65719727 25.9934668 300.93719727 20.5534668 306.37719727 C21.2134668 306.70719727 21.8734668 307.03719727 22.5534668 307.37719727 C28.08948408 302.77583225 32.95210178 297.91321455 37.5534668 292.37719727 C37.2234668 291.71719727 36.8934668 291.05719727 36.5534668 290.37719727 Z M-299.4465332 294.37719727 C-302.05699768 297.22497669 -303.87329889 299.50786564 -304.4465332 303.37719727 C-303.4565332 303.87219727 -303.4565332 303.87219727 -302.4465332 304.37719727 C-300.7965332 301.07719727 -299.1465332 297.77719727 -297.4465332 294.37719727 C-298.1065332 294.37719727 -298.7665332 294.37719727 -299.4465332 294.37719727 Z M-308.4465332 327.37719727 C-311.4165332 331.00719727 -314.3865332 334.63719727 -317.4465332 338.37719727 C-315.4665332 339.36719727 -315.4665332 339.36719727 -313.4465332 340.37719727 C-312.60583905 338.7768759 -311.77421816 337.17178555 -310.9465332 335.56469727 C-310.4824707 334.67137695 -310.0184082 333.77805664 -309.5402832 332.85766602 C-308.24480179 330.371517 -308.24480179 330.371517 -308.4465332 327.37719727 Z M-25.4465332 344.37719727 C-26.89092623 345.91410307 -28.30163425 347.48273405 -29.6965332 349.06469727 C-39.08610194 359.56677415 -39.08610194 359.56677415 -45.4465332 362.37719727 C-40.95145248 363.98258324 -38.13113718 362.35546617 -33.92700195 360.56079102 C-28.29534305 357.97159736 -28.29534305 357.97159736 -24.4465332 353.37719727 C-24.37702779 351.8369573 -24.36200963 350.29384739 -24.3840332 348.75219727 C-24.39305664 347.93493164 -24.40208008 347.11766602 -24.41137695 346.27563477 C-24.42297852 345.64915039 -24.43458008 345.02266602 -24.4465332 344.37719727 C-24.7765332 344.37719727 -25.1065332 344.37719727 -25.4465332 344.37719727 Z M-315.4465332 348.37719727 C-316.1271582 350.23344727 -316.1271582 350.23344727 -316.8215332 352.12719727 C-317.8849339 354.96965222 -318.99845803 357.70382772 -320.4465332 360.37719727 C-319.8277832 360.93407227 -319.2090332 361.49094727 -318.5715332 362.06469727 C-316.38546941 364.44364904 -315.45867622 366.34076823 -314.4465332 369.37719727 C-311.51743342 364.98354759 -311.35943508 360.5958266 -311.4465332 355.37719727 C-312.15838722 352.71687105 -313.0975258 350.80541059 -314.4465332 348.37719727 C-314.7765332 348.37719727 -315.1065332 348.37719727 -315.4465332 348.37719727 Z " fill="#000000" transform="translate(490.446533203125,107.622802734375)"/>
<path d="M0 0 C7.19651916 1.71868887 14.01218576 1.63832952 21.37792969 1.125 C27.81792789 0.86244062 27.81792789 0.86244062 30.60668945 2.77001953 C31.74025605 3.84382131 32.860864 4.93145846 33.96850586 6.03198242 C37.19036755 8.68691655 41.04687052 9.02052731 45.0625 9.75 C60.47891767 13.09300967 73.12132809 21.01325987 84.75 31.5 C85.54792969 32.17933594 86.34585938 32.85867188 87.16796875 33.55859375 C99.72950112 44.35267433 111.21792243 58.54110576 112.97119141 75.65966797 C113.27461754 81.08838199 113.51062726 86.51510113 113.66699219 91.95019531 C113.73396225 94.00735791 113.84789602 96.06296067 113.9765625 98.1171875 C114.06434617 109.85093751 107.97673254 120.21721896 103.07226562 130.59179688 C101.85605928 133.26673225 100.79188248 135.95248163 99.76171875 138.703125 C97.77291847 143.78216802 94.99318152 148.04768329 91.875 152.5 C90.79666669 154.0796992 89.7198264 155.66041867 88.64453125 157.2421875 C88.13744629 157.98436523 87.63036133 158.72654297 87.10791016 159.49121094 C83.72297076 164.49863297 80.71050534 169.70192442 77.8515625 175.0234375 C72.38580387 185.11474914 66.08692615 194.30555356 59.22900391 203.50097656 C57.92453062 205.26410421 56.64735041 207.04134579 55.38671875 208.8359375 C46.56978787 221.33372303 35.85938148 229.58273188 22.625 237.125 C21.59616699 237.71748535 20.56733398 238.3099707 19.50732422 238.92041016 C16.2589297 240.78743417 13.00459855 242.64381649 9.75 244.5 C7.54677978 245.76545923 5.34365376 247.03108248 3.140625 248.296875 C1.05258097 249.49045433 -1.0359433 250.68319398 -3.125 251.875 C-4.11129395 252.44041504 -5.09758789 253.00583008 -6.11376953 253.58837891 C-7.47671143 254.36060791 -7.47671143 254.36060791 -8.8671875 255.1484375 C-9.66753418 255.60395996 -10.46788086 256.05948242 -11.29248047 256.52880859 C-13.25 257.5 -13.25 257.5 -15.25 257.5 C-14.12351132 254.12053396 -13.73205494 253.8969376 -10.8125 252.1875 C-9.7299292 251.54228394 -9.7299292 251.54228394 -8.62548828 250.8840332 C-7.44962158 250.19893677 -7.44962158 250.19893677 -6.25 249.5 C-4.6004261 248.51622592 -2.95201592 247.53049828 -1.3046875 246.54296875 C-0.46260742 246.03942871 0.37947266 245.53588867 1.24707031 245.01708984 C5.81903353 242.24590574 10.30551148 239.34384361 14.7668457 236.3984375 C17.80268347 234.39418131 20.80636153 232.46865782 23.98828125 230.69921875 C33.55955291 225.18464501 38.98422279 216.81449232 45.09228516 207.87060547 C46.57574947 205.74918595 48.11943052 203.71644826 49.73046875 201.69140625 C56.85591621 192.50782642 60.48493781 182.77647909 64.18359375 171.80297852 C67.68631307 161.41199888 72.05960407 152.04361871 77.4375 142.5078125 C85.81594537 127.04958079 89.06363449 106.91063392 84.1875 89.8125 C83.41147868 87.69460847 82.59638305 85.59076765 81.75 83.5 C81.27033061 82.19028818 80.79119144 80.88038207 80.3125 79.5703125 C74.04755371 63.20493668 61.70720388 52.32473978 47.5 42.5 C46.5925 41.84 45.685 41.18 44.75 40.5 C44.75 39.84 44.75 39.18 44.75 38.5 C58.5378861 41.42183587 72.64785078 54.4856241 80.14453125 65.79296875 C82.96767765 70.5531645 85.4008623 75.4919482 87.75 80.5 C87.18092247 78.1207716 86.59538621 75.74765847 86 73.375 C85.84273437 72.70984375 85.68546875 72.0446875 85.5234375 71.359375 C81.92447744 57.24037784 68.55123861 47.99068991 57.32543945 39.82788086 C56.61734131 39.30718018 55.90924316 38.78647949 55.1796875 38.25 C54.22425049 37.56164062 54.22425049 37.56164062 53.24951172 36.859375 C51.75 35.5 51.75 35.5 50.75 32.5 C56.3349615 33.96649146 60.38762358 36.73282804 65 40.0625 C65.75071777 40.60044189 66.50143555 41.13838379 67.27490234 41.69262695 C73.09713405 45.91835928 78.81778551 50.23727629 83.75 55.5 C84.31887939 56.07137695 84.88775879 56.64275391 85.47387695 57.23144531 C91.01817671 63.40322371 92.35014172 69.80702507 93.41430664 77.81933594 C93.68670205 79.86899575 93.99675512 81.91004473 94.31445312 83.953125 C95.44726919 91.49565442 96.10668893 98.87434193 95.75 106.5 C95.72462158 107.22703125 95.69924316 107.9540625 95.6730957 108.703125 C94.68388151 124.88689192 86.66764028 138.72485315 79.30541992 152.78833008 C78.87893661 153.60399948 78.45245331 154.41966888 78.01304626 155.26005554 C77.19741247 156.81149676 76.37481653 158.35930285 75.54444885 159.90290833 C73.34040515 163.97366136 73.34040515 163.97366136 72.75 168.5 C78.15460173 159.95369889 82.75709373 150.99842318 87.42236328 142.03759766 C88.72720416 139.54357115 90.04633208 137.05771323 91.37109375 134.57421875 C95.29558962 127.21013544 99.18393511 119.82778855 102.8125 112.3125 C103.36035156 111.18457031 103.90820312 110.05664062 104.47265625 108.89453125 C109.33211985 95.98054387 108.07853706 76.6742732 103.78515625 63.55078125 C100.80243168 57.15348984 96.29955604 51.84228171 91.75 46.5 C90.97398437 45.52160156 90.19796875 44.54320312 89.3984375 43.53515625 C86.70960243 40.31490253 83.68616462 37.74781446 80.375 35.1875 C79.76922119 34.71820068 79.16344238 34.24890137 78.53930664 33.76538086 C66.64609352 24.73215508 55.29253662 18.79006034 40.59375 15.58984375 C39.88275146 15.42846924 39.17175293 15.26709473 38.43920898 15.10083008 C37.06584563 14.79355362 35.68768119 14.50669246 34.30493164 14.24487305 C30.44236425 13.39343374 28.45162002 12.38149095 26.02734375 9.38671875 C24.04067264 7.20068159 23.08117507 6.55952322 20.13110352 6.02929688 C16.98512428 5.94549267 13.89285707 6.02618185 10.75 6.1875 C8.62513427 6.25807223 6.50012976 6.32460364 4.375 6.38671875 C2.88226563 6.43578369 2.88226563 6.43578369 1.359375 6.48583984 C-1.6091051 6.50194874 -4.33285423 6.02714727 -7.25 5.5 C-14.41895527 4.9584292 -20.31558721 5.99258984 -27.0625 8.375 C-27.96339355 8.68453613 -28.86428711 8.99407227 -29.79248047 9.31298828 C-39.08615142 12.61521783 -47.87648235 16.85118508 -56.69335938 21.24462891 C-59.2013942 22.4761334 -61.72635723 23.65864506 -64.265625 24.82421875 C-78.1400981 31.19729494 -90.903552 38.65767191 -103.41699219 47.40209961 C-107.92728856 50.5 -107.92728856 50.5 -111.25 50.5 C-111.25 49.84 -111.25 49.18 -111.25 48.5 C-109.77905273 47.31762695 -109.77905273 47.31762695 -107.68359375 45.98828125 C-106.89887695 45.48482178 -106.11416016 44.9813623 -105.30566406 44.46264648 C-104.44166992 43.91809814 -103.57767578 43.3735498 -102.6875 42.8125 C-100.8576918 41.64382567 -99.02828088 40.47452914 -97.19921875 39.3046875 C-95.74781494 38.37994629 -95.74781494 38.37994629 -94.26708984 37.43652344 C-91.19028572 35.46167231 -88.13379406 33.4586182 -85.08203125 31.4453125 C-84.06761963 30.77717529 -83.05320801 30.10903809 -82.00805664 29.4206543 C-80.04325028 28.12529499 -78.08011917 26.82739007 -76.11889648 25.52661133 C-70.9625918 22.14123248 -65.82488636 19.13117852 -60.25 16.5 C-58.97343101 15.86040922 -57.6986929 15.2171515 -56.42578125 14.5703125 C-53.03712862 12.86036228 -49.63915679 11.1698417 -46.23681641 9.48730469 C-44.44815486 8.5984687 -42.66694185 7.69468122 -40.88671875 6.7890625 C-27.76974421 0.35308745 -14.41244868 -3.52716835 0 0 Z " fill="#000000" transform="translate(409.25,231.5)"/>
<path d="M0 0 C0.85857101 0.00424484 1.71714203 0.00848969 2.60173035 0.01286316 C5.33246789 0.0295988 8.06245587 0.06724109 10.79296875 0.10546875 C12.64907785 0.12052222 14.50519857 0.13420947 16.36132812 0.14648438 C20.9013286 0.17948552 25.44077177 0.23123216 29.98046875 0.29296875 C29.98046875 1.28296875 29.98046875 2.27296875 29.98046875 3.29296875 C29.02527344 3.34195313 28.07007813 3.3909375 27.0859375 3.44140625 C19.24231246 3.89497579 11.68255232 4.64366603 3.98046875 6.29296875 C7.86207536 6.36106711 11.45091463 6.37290145 15.29296875 5.79296875 C20.22164574 5.12467357 25.01515326 5.14923593 29.98046875 5.29296875 C31.00140625 5.32132813 32.02234375 5.3496875 33.07421875 5.37890625 C38.78999283 5.68201548 43.14057068 6.37569939 48.109375 9.2578125 C50.08922485 10.35313653 52.01959724 11.03034768 54.16796875 11.73046875 C57.20973449 12.79508676 57.96687149 13.27704053 60.16796875 15.85546875 C63.47103373 18.71812507 64.96882776 18.74652806 69.23046875 19.23046875 C77.5400134 20.21857995 83.52053854 23.95944971 88.98046875 30.29296875 C90.98046875 33.29296875 90.98046875 33.29296875 90.98046875 36.29296875 C86.67458864 34.9881566 84.02908463 32.75392713 80.82421875 29.73046875 C76.81973728 26.60833066 72.80047878 26.07323997 67.85546875 25.60546875 C61.57880045 24.72503111 57.55193048 22.55950712 52.40234375 18.97265625 C44.42696084 13.4413423 34.57950558 11.46413625 24.98046875 12.29296875 C23.99046875 12.62296875 23.00046875 12.95296875 21.98046875 13.29296875 C17.54724857 13.5324826 13.10696664 13.48217935 8.66796875 13.48046875 C7.39808105 13.48256348 6.12819336 13.4846582 4.81982422 13.48681641 C-2.76467092 13.45079711 -9.92506502 13.12318449 -17.35546875 11.53515625 C-20.66867732 11.23395547 -22.95723508 12.07347027 -26.01953125 13.29296875 C-25.44847656 13.18597656 -24.87742187 13.07898438 -24.2890625 12.96875 C-16.03023034 11.74765081 -7.09375841 12.57681731 -0.01953125 17.29296875 C-0.01953125 17.95296875 -0.01953125 18.61296875 -0.01953125 19.29296875 C-0.94233887 19.33055298 -0.94233887 19.33055298 -1.88378906 19.36889648 C-4.67923281 19.48515362 -7.47436423 19.60774517 -10.26953125 19.73046875 C-11.23761719 19.76978516 -12.20570313 19.80910156 -13.203125 19.84960938 C-14.13769531 19.89150391 -15.07226562 19.93339844 -16.03515625 19.9765625 C-17.32341309 20.03154907 -17.32341309 20.03154907 -18.63769531 20.08764648 C-20.87283747 20.28032325 -22.85360128 20.73662764 -25.01953125 21.29296875 C-26.85392561 21.23771591 -28.68750593 21.15131433 -30.51953125 21.04296875 C-37.44942788 20.98359387 -43.01987362 22.87251679 -49.01953125 26.29296875 C-50.25703125 27.68515625 -50.25703125 27.68515625 -51.51953125 29.10546875 C-54.65151454 31.84595413 -55.65724021 31.44604698 -59.70703125 31.23046875 C-65.63159115 30.97697291 -68.68399606 32.27822077 -73.515625 35.58203125 C-76.14054175 37.37565611 -78.82511672 38.82702832 -81.64453125 40.29296875 C-84.94634517 42.06590928 -87.91303132 43.88406582 -90.83203125 46.23046875 C-95.38675199 49.84773138 -100.58740373 52.08969672 -105.84765625 54.484375 C-110.18495173 56.95748806 -112.23158512 59.84314787 -114.58203125 64.16796875 C-118.9898105 69.81896779 -125.61807696 73.21302376 -132.01953125 76.29296875 C-130.63622021 73.12518646 -129.06979869 71.22784213 -126.51953125 68.91796875 C-122.24779877 64.79380521 -118.97174625 60.22891561 -115.69726562 55.30517578 C-111.12949072 48.59084768 -105.51669415 44.75733967 -98.26953125 41.35546875 C-93.73536733 39.16244755 -89.29767987 36.96317376 -85.01953125 34.29296875 C-67.3686803 23.44008066 -67.3686803 23.44008066 -58.51953125 22.29296875 C-53.52742224 21.60613496 -51.21719573 19.10264025 -48.00390625 15.36328125 C-40.77304796 7.81927556 -29.67727706 4.28699476 -19.45703125 3.66796875 C-18.52761719 3.65507812 -17.59820312 3.6421875 -16.640625 3.62890625 C-13.95080871 3.49454019 -13.95080871 3.49454019 -11.91943359 1.7902832 C-7.88791124 -0.29132368 -4.46890241 -0.0836435 0 0 Z " fill="#000000" transform="translate(428.01953125,203.70703125)"/>
<path d="M0 0 C0.83071518 0.00141495 1.66143036 0.0028299 2.51731873 0.00428772 C5.1352825 0.00982455 7.75315642 0.02236463 10.37109375 0.03515625 C12.16080604 0.04017944 13.9505197 0.0447409 15.74023438 0.04882812 C20.09638808 0.05977317 24.45247575 0.07699306 28.80859375 0.09765625 C28.80859375 0.75765625 28.80859375 1.41765625 28.80859375 2.09765625 C27.66608154 2.19264404 26.52356934 2.28763184 25.34643555 2.38549805 C21.00779277 2.75076933 16.67136321 3.13839902 12.33520508 3.53198242 C10.47699545 3.6976857 8.61827133 3.85774044 6.7590332 4.01147461 C-11.55648567 5.53322408 -30.909653 8.38924985 -46.81640625 18.28515625 C-49.99233973 19.99075015 -51.95778284 20.49303618 -55.44140625 21.03515625 C-57.98912029 21.40659392 -57.98912029 21.40659392 -60.19140625 22.09765625 C-61.83607365 24.56092337 -61.83607365 24.56092337 -63.19140625 27.09765625 C-65.02474182 27.53901481 -66.86258187 27.96669887 -68.71484375 28.3203125 C-72.50358578 29.50952333 -75.54305375 31.76427212 -78.8425293 33.93286133 C-83.18047456 36.68606172 -87.52438391 38.45319824 -92.37890625 40.09765625 C-99.4941052 42.56203505 -104.70077435 45.85435011 -110.19140625 51.09765625 C-110.89652344 51.76023437 -111.60164063 52.4228125 -112.328125 53.10546875 C-117.78423903 58.40569381 -122.86038533 64.07362912 -127.50390625 70.09765625 C-128.33921875 71.08765625 -128.33921875 71.08765625 -129.19140625 72.09765625 C-129.85140625 72.09765625 -130.51140625 72.09765625 -131.19140625 72.09765625 C-129.68413973 67.68351859 -127.29631466 64.14212454 -124.56640625 60.41015625 C-124.12055176 59.7958374 -123.67469727 59.18151855 -123.21533203 58.54858398 C-106.28202339 35.36125613 -106.28202339 35.36125613 -95.23046875 32.609375 C-88.8492074 31.0086149 -83.41835547 28.26400925 -77.69140625 25.09765625 C-76.88928711 24.65800537 -76.08716797 24.21835449 -75.26074219 23.76538086 C-74.50567383 23.33878174 -73.75060547 22.91218262 -72.97265625 22.47265625 C-72.29267578 22.08851563 -71.61269531 21.704375 -70.91210938 21.30859375 C-68.89449854 20.04359853 -68.89449854 20.04359853 -67.19140625 17.09765625 C-65.39477539 16.19384766 -65.39477539 16.19384766 -63.2265625 15.44921875 C-62.4325 15.16860596 -61.6384375 14.88799316 -60.8203125 14.59887695 C-59.97339844 14.30972412 -59.12648438 14.02057129 -58.25390625 13.72265625 C-52.91893697 11.84819421 -47.73414387 9.99146251 -42.69140625 7.41015625 C-29.89510765 1.33291726 -14.00628233 -0.0921188 0 0 Z " fill="#000000" transform="translate(389.19140625,251.90234375)"/>
<path d="M0 0 C2 1 2 1 2.8515625 3.4140625 C7.60956839 23.16699603 4.30323895 39.85201137 -6 57 C-13.12470871 67.82755419 -20.92723877 74.70245089 -32.25 80.8125 C-33.16007812 81.31458984 -34.07015625 81.81667969 -35.0078125 82.33398438 C-41.73133503 86 -41.73133503 86 -44 86 C-42.39566792 82.08654257 -39.69494344 79.37633698 -36.8125 76.375 C-26.87079549 65.72409898 -16.51491804 51.98391657 -15 37 C-14.91878906 36.236875 -14.83757812 35.47375 -14.75390625 34.6875 C-14.26620776 25.46556483 -17.25113535 16.79684654 -22 9 C-22 8.34 -22 7.68 -22 7 C-16.69575348 8.76808217 -14.62235163 14.29464566 -12 19 C-7.03765287 29.21863119 -8.31096215 39.51128411 -11.84375 49.99609375 C-13.321069 53.83412857 -15.02136945 57.39606578 -17 61 C-0.56806082 44.56806082 -0.44012585 21.71692786 0 0 Z " fill="#000000" transform="translate(352,400)"/>
<path d="M0 0 C0.66 0 1.32 0 2 0 C2.53625 0.70125 3.0725 1.4025 3.625 2.125 C5.69564054 4.63156487 7.26586763 5.99507001 9.875 7.8125 C18.55227129 14.20373692 22.39568917 22.64953388 25 33 C26.356891 43.47110227 25.33801399 58.5711572 19.5 67.75 C18.37288993 69.19833644 17.19991824 70.61138494 16 72 C15.12355262 73.05869928 14.24867909 74.11870257 13.375 75.1796875 C11.47798386 77.46516665 9.55776171 79.72743835 7.61328125 81.97265625 C5.59710013 84.30829208 3.63624784 86.67155608 1.6875 89.0625 C-1.11904021 92.13011371 -3.39161536 93.99534187 -7 96 C-7.99 96 -8.98 96 -10 96 C-8.50219439 92.42459306 -6.45312658 90.36761877 -3.625 87.75 C5.1555486 79.11004243 15.18636363 68.61010701 17 56 C17.1753125 54.90171875 17.350625 53.8034375 17.53125 52.671875 C19.15775239 39.93093959 18.38086967 27.87707109 11 17 C6.60990496 14.01473538 2.27047247 12.26350238 -2.7890625 10.7109375 C-5 10 -5 10 -7.28125 8.859375 C-10.96266392 7.69570968 -14.14780243 8.26889498 -17.875 8.875 C-22.98473763 9.65739839 -27.82450565 10.12161736 -33 10 C-33 9.34 -33 8.68 -33 8 C-28.22528998 4.41896749 -24.70799792 2.87658379 -18.8125 2.8671875 C-18.03132813 2.86589844 -17.25015625 2.86460937 -16.4453125 2.86328125 C-15.63835937 2.86714844 -14.83140625 2.87101562 -14 2.875 C-13.19304687 2.87113281 -12.38609375 2.86726563 -11.5546875 2.86328125 C-10.77351563 2.86457031 -9.99234375 2.86585938 -9.1875 2.8671875 C-8.12595703 2.86887939 -8.12595703 2.86887939 -7.04296875 2.87060547 C-4.92287267 3.00488498 -3.04042437 3.42283502 -1 4 C-0.67 2.68 -0.34 1.36 0 0 Z " fill="#000000" transform="translate(295,390)"/>
<path d="M0 0 C8.81207821 7.98594588 17.34302623 19.59075611 19.4375 31.484375 C19.50629708 34.04706631 19.29421631 36.45251736 19 39 C18.91492188 40.20398438 18.82984375 41.40796875 18.7421875 42.6484375 C17.20692205 61.21990265 8.81010968 77.86941587 -4.46875 90.9375 C-12.60565547 97.56757112 -20.65501313 100.9808498 -30.55834961 104.15234375 C-32.82998393 104.88060516 -35.09382262 105.62998816 -37.35742188 106.3828125 C-38.80688767 106.8580049 -40.25674434 107.33200707 -41.70703125 107.8046875 C-42.37998734 108.02647675 -43.05294342 108.24826599 -43.74629211 108.47677612 C-47.04587843 109.52655717 -49.48875719 110 -53 110 C-53 109.01 -53 108.02 -53 107 C-52.28980713 106.71801758 -51.57961426 106.43603516 -50.84790039 106.14550781 C-47.58535243 104.84887796 -44.32392223 103.54945866 -41.0625 102.25 C-39.94552734 101.8065625 -38.82855469 101.363125 -37.67773438 100.90625 C-27.82607894 96.97714402 -18.60811231 93.26188649 -10 87 C-9.39285156 86.58363281 -8.78570312 86.16726563 -8.16015625 85.73828125 C4.41519367 76.24260886 10.00609774 58.80115249 12.17553711 43.87768555 C13.9400664 31.99500264 13.9400664 31.99500264 10 21 C9.01954983 19.35493095 8.04050902 17.70902151 7.0625 16.0625 C5.62685466 13.68169164 4.18848014 11.30375852 2.72265625 8.94140625 C0.68737711 5.57341764 0 4.05480633 0 0 Z " fill="#000000" transform="translate(310,394)"/>
<path d="M0 0 C-1.15113991 3.45341972 -1.8931744 3.84642358 -4.8125 5.8125 C-8.57793246 8.50982056 -10.71297422 10.99770489 -13 15 C-8.70355192 13.52533786 -5.31839095 11.21894946 -1.6875 8.5625 C5.23902115 3.66936386 11.34311739 0.2387381 20.05859375 0.4296875 C26.46365049 1.67157101 32.25875375 4.99924196 38 8 C38 8.66 38 9.32 38 10 C34.81792748 9.50280117 32.03003275 8.64501813 29.0625 7.4375 C25.56018817 6.09857476 22.785619 5.48377923 19 6 C16.9600281 7.36323743 16.9600281 7.36323743 15 9 C13.64841797 9.39832031 13.64841797 9.39832031 12.26953125 9.8046875 C8.49806065 11.18350471 5.75631812 13.24348229 2.6875 15.75 C1.54857515 16.65318972 0.40794293 17.55423055 -0.734375 18.453125 C-1.28802734 18.88947266 -1.84167969 19.32582031 -2.41210938 19.77539062 C-14.85807388 29.3739389 -14.85807388 29.3739389 -22.125 28.8125 C-27.68332357 28.6707441 -31.23803646 30.161109 -36.00390625 32.90625 C-38 34 -38 34 -40 34 C-37.03489975 27.57561612 -34.246838 23.65419273 -27.8046875 20.6640625 C-26 20 -26 20 -24 20 C-23.690625 18.7625 -23.690625 18.7625 -23.375 17.5 C-20.32290245 9.73102441 -15.44580278 4.69908752 -8 1 C-5.07175348 0.02391783 -3.04386724 -0.08226668 0 0 Z " fill="#000000" transform="translate(233,403)"/>
<path d="M0 0 C0.99 0 1.98 0 3 0 C7.37047405 8.39131018 5.22533546 14.80855587 2.5234375 23.484375 C1.83668709 26.78487699 2.49151613 28.77116398 3.75 31.8125 C4.16728533 35.46374662 2.72304572 37.84108285 1 41 C-1.5 43 -1.5 43 -4 44 C-4.99 43.67 -5.98 43.34 -7 43 C-8.74389766 43.94729356 -8.74389766 43.94729356 -10.44140625 45.45703125 C-11.10849609 45.99263672 -11.77558594 46.52824219 -12.46289062 47.08007812 C-13.84062442 48.21686871 -15.21322499 49.35991531 -16.58007812 50.50976562 C-25.96218948 57.99577821 -36.0502807 57.27996535 -47.625 57.125 C-48.91535156 57.11597656 -50.20570313 57.10695313 -51.53515625 57.09765625 C-54.69030249 57.0742848 -57.84504926 57.04152091 -61 57 C-61 55.68 -61 54.36 -61 53 C-58.20847153 51.60423576 -55.67185536 51.65390886 -52.55859375 51.421875 C-51.25212891 51.31230469 -49.94566406 51.20273437 -48.59960938 51.08984375 C-46.52907361 50.91772574 -44.45891722 50.75152452 -42.38647461 50.60400391 C-33.9733053 49.99460336 -26.97396006 49.07240574 -20 44 C-19.3591748 43.53609863 -18.71834961 43.07219727 -18.05810547 42.59423828 C-9.60516096 36.15705252 -5.59035683 27.8069511 -2.5625 17.875 C-2.30331787 17.0279248 -2.04413574 16.18084961 -1.77709961 15.30810547 C-0.28076428 10.03726299 0.25919221 5.47464522 0 0 Z " fill="#000000" transform="translate(274,422)"/>
<path d="M0 0 C0.66 0.33 1.32 0.66 2 1 C1.38050249 4.32140231 0.19276143 6.48166622 -1.8125 9.1875 C-2.31394531 9.88230469 -2.81539062 10.57710938 -3.33203125 11.29296875 C-5.26808429 13.27436261 -6.24543561 13.81636237 -9 14 C-10.33438237 13.33543555 -11.66770106 12.66873145 -13 12 C-15.10931804 12.23281579 -15.10931804 12.23281579 -17.25 12.8125 C-20.38907563 13.28101875 -21.601661 13.23834499 -24.36328125 11.5859375 C-26.41566021 9.8142569 -28.28836639 8.10339716 -30 6 C-30 5.34 -30 4.68 -30 4 C-29.236875 4.20625 -28.47375 4.4125 -27.6875 4.625 C-24.78114056 5.33391203 -24.78114056 5.33391203 -22 3 C-20.00047242 2.95653201 -17.99960012 2.960008 -16 3 C-14.7315625 2.7215625 -14.7315625 2.7215625 -13.4375 2.4375 C-11 2 -11 2 -8.5625 2.625 C-5.00624402 3.1454277 -3.10211484 1.65446125 0 0 Z " fill="#000000" transform="translate(255,455)"/>
<path d="M0 0 C0.66 0 1.32 0 2 0 C1.33140801 18.92115345 -2.82730174 41.57114237 -16 56 C-16.66 56 -17.32 56 -18 56 C-16.40252928 51.10616113 -14.74238999 46.25150931 -12.94921875 41.42578125 C-7.88804076 27.77674745 -3.54934 14.11876897 0 0 Z " fill="#000000" transform="translate(226,274)"/>
<path d="M0 0 C1.81324186 1.54196946 2.56218949 3.0940995 3.48828125 5.265625 C2.12896484 5.0490625 2.12896484 5.0490625 0.7421875 4.828125 C-11.90050892 2.90161888 -21.88758714 2.14766099 -33.51171875 8.265625 C-33.51171875 6.285625 -33.51171875 4.305625 -33.51171875 2.265625 C-32.11893858 1.61323342 -30.72232663 0.96901948 -29.32421875 0.328125 C-28.54691406 -0.03152344 -27.76960937 -0.39117187 -26.96875 -0.76171875 C-18.51169857 -4.10958172 -8.06226477 -4.35051546 0 0 Z " fill="#000000" transform="translate(269.51171875,377.734375)"/>
<path d="M0 0 C0.99 0 1.98 0 3 0 C3.16435547 1.51980469 3.16435547 1.51980469 3.33203125 3.0703125 C3.49159893 4.42194461 3.65178833 5.77350343 3.8125 7.125 C3.88275391 7.79015625 3.95300781 8.4553125 4.02539062 9.140625 C4.58154679 13.67885928 5.95625841 16.95936477 8 21 C7.67 21.99 7.34 22.98 7 24 C1.56331878 22.55021834 1.56331878 22.55021834 -0.6796875 20.359375 C-2.4825416 17.13770674 -2.36305769 14.67126604 -2.3125 11 C-2.30863281 9.783125 -2.30476562 8.56625 -2.30078125 7.3125 C-2.02418833 4.26638572 -1.6023478 2.55354231 0 0 Z " fill="#000000" transform="translate(198,447)"/>
<path d="M0 0 C0 0.99 0 1.98 0 3 C-2.62315032 4.31157516 -4.23033436 3.89649988 -7.125 3.5625 C-8.03507813 3.46066406 -8.94515625 3.35882813 -9.8828125 3.25390625 C-10.58148438 3.17011719 -11.28015625 3.08632813 -12 3 C-12 1.35 -12 -0.3 -12 -2 C-6.84854146 -3.28786464 -4.42296703 -2.94864468 0 0 Z " fill="#000000" transform="translate(231,448)"/>
</svg>
